<svg aria-hidden="true" style="position: absolute; width: 0; height: 0; overflow: hidden;" version="1.1" xmlns="http://www.w3.org/2000/svg" xmlns:xlink="http://www.w3.org/1999/xlink">
<defs>
<symbol id="icon-mobile-screen" viewBox="0 0 15 24">
<path fill="#02897a" style="fill: var(--color1, #02897a)" d="M12.701 1.714h-9.974c-1.032 0-1.87 0.864-1.87 1.929v16.714c0 1.065 0.838 1.929 1.87 1.929h9.974c1.032 0 1.87-0.864 1.87-1.929v-16.714c0-1.065-0.838-1.929-1.87-1.929zM9.584 19.678c0 0.39-0.281 0.679-0.623 0.679h-2.529c-0.308 0-0.588-0.289-0.588-0.643s0.281-0.643 0.623-0.643h2.493c0.343 0 0.623 0.289 0.623 0.607zM12.078 17.143h-8.727v-12.857h8.727v12.857z"></path>
</symbol>
<symbol id="icon-send-clock" viewBox="0 0 20 24">
<path fill="#fff" style="fill: var(--color2, #fff)" d="M17.748 2.017h1.21c0.227 0 0.403-0.176 0.403-0.403v-0.807c0-0.227-0.176-0.403-0.403-0.403h-18.555c-0.227 0-0.403 0.176-0.403 0.403v0.807c0 0.227 0.176 0.403 0.403 0.403h1.21c0 4.664 2.231 8.042 4.702 9.681-2.471 1.639-4.702 5.017-4.702 9.681h-1.21c-0.227 0-0.403 0.176-0.403 0.403v0.807c0 0.227 0.176 0.403 0.403 0.403h18.555c0.227 0 0.403-0.176 0.403-0.403v-0.807c0-0.227-0.176-0.403-0.403-0.403h-1.21c0-4.664-2.231-8.042-4.702-9.681 2.471-1.639 4.702-5.017 4.702-9.681zM16.134 2.017c0 1.84-0.416 3.466-1.072 4.84h-10.765c-0.655-1.374-1.071-3-1.071-4.84h12.908zM15.416 17.345h-11.471c0.933-2.433 2.609-4.16 4.286-4.84h2.899c1.676 0.681 3.353 2.408 4.286 4.84z"></path>
</symbol>
<symbol id="icon-starempty" viewBox="0 0 25 24">
<path fill="#f3cd03" style="fill: var(--color3, #f3cd03)" d="M6.468 14.787l-1.815 7.741c-0.056 0.234-0.039 0.48 0.048 0.705s0.242 0.418 0.444 0.555c0.201 0.137 0.44 0.211 0.684 0.212s0.484-0.070 0.687-0.204l6.634-4.355 6.634 4.355c0.208 0.136 0.452 0.206 0.701 0.2s0.491-0.086 0.692-0.23c0.201-0.144 0.353-0.346 0.434-0.578s0.089-0.483 0.021-0.719l-2.228-7.678 5.527-4.897c0.177-0.157 0.303-0.362 0.364-0.588s0.051-0.466-0.025-0.688c-0.077-0.222-0.217-0.417-0.405-0.561s-0.415-0.231-0.652-0.249l-6.946-0.545-3.006-6.552c-0.096-0.211-0.252-0.39-0.449-0.516s-0.427-0.193-0.661-0.193c-0.235 0-0.464 0.067-0.661 0.193s-0.353 0.305-0.449 0.516l-3.006 6.552-6.946 0.543c-0.233 0.018-0.456 0.102-0.643 0.242s-0.327 0.329-0.407 0.546c-0.080 0.217-0.094 0.452-0.042 0.676s0.169 0.43 0.337 0.591l5.134 4.927zM9.944 9.597c0.217-0.017 0.426-0.091 0.605-0.215s0.32-0.292 0.409-0.488l2.192-4.776 2.192 4.776c0.089 0.196 0.231 0.365 0.409 0.488s0.387 0.198 0.605 0.215l4.839 0.378-3.985 3.532c-0.346 0.307-0.484 0.78-0.357 1.221l1.527 5.261-4.552-2.989c-0.2-0.132-0.435-0.203-0.676-0.203s-0.476 0.071-0.676 0.203l-4.757 3.123 1.279-5.454c0.047-0.201 0.041-0.41-0.018-0.607s-0.168-0.377-0.318-0.521l-3.701-3.554 4.983-0.391z"></path>
</symbol>
<symbol id="icon-starfull" viewBox="0 0 27 24">
<path fill="#f3cd03" style="fill: var(--color3, #f3cd03)" d="M25.36 8.615c-0.077-0.222-0.217-0.417-0.405-0.561s-0.415-0.231-0.652-0.25l-6.946-0.543-3.006-6.552c-0.096-0.211-0.251-0.39-0.448-0.516s-0.427-0.193-0.661-0.193c-0.235-0-0.464 0.067-0.661 0.192s-0.353 0.305-0.449 0.516l-3.006 6.553-6.946 0.543c-0.233 0.018-0.456 0.102-0.643 0.242s-0.327 0.329-0.407 0.546c-0.080 0.217-0.094 0.452-0.042 0.676s0.169 0.43 0.337 0.591l5.133 4.927-1.815 7.741c-0.055 0.234-0.037 0.479 0.051 0.704s0.243 0.417 0.444 0.554c0.201 0.137 0.439 0.211 0.683 0.213s0.483-0.069 0.686-0.202l6.634-4.355 6.634 4.355c0.207 0.136 0.452 0.205 0.701 0.2s0.49-0.086 0.692-0.23 0.353-0.346 0.434-0.578c0.081-0.232 0.089-0.483 0.021-0.719l-2.228-7.678 5.527-4.897c0.362-0.322 0.495-0.823 0.339-1.278z"></path>
</symbol>
<symbol id="icon-stargroup" viewBox="0 0 141 24">
<path fill="#f3cd03" style="fill: var(--color3, #f3cd03)" d="M24.303 8.615c-0.077-0.222-0.217-0.417-0.405-0.561s-0.415-0.231-0.652-0.25l-6.946-0.543-3.006-6.552c-0.096-0.211-0.251-0.39-0.448-0.516s-0.427-0.193-0.661-0.193c-0.235-0-0.464 0.067-0.661 0.192s-0.353 0.305-0.449 0.516l-3.006 6.553-6.946 0.543c-0.233 0.018-0.456 0.102-0.643 0.242s-0.327 0.329-0.407 0.546c-0.080 0.217-0.094 0.452-0.042 0.676s0.169 0.43 0.337 0.591l5.133 4.927-1.815 7.741c-0.055 0.234-0.037 0.479 0.051 0.704s0.243 0.417 0.444 0.554c0.201 0.137 0.439 0.211 0.683 0.213s0.483-0.069 0.686-0.202l6.634-4.355 6.634 4.355c0.208 0.136 0.452 0.205 0.701 0.2s0.49-0.086 0.692-0.23c0.201-0.145 0.353-0.346 0.434-0.578s0.089-0.483 0.021-0.719l-2.229-7.678 5.527-4.897c0.362-0.322 0.495-0.823 0.339-1.278z"></path>
<path fill="#f3cd03" style="fill: var(--color3, #f3cd03)" d="M53.545 8.615c-0.077-0.222-0.217-0.417-0.405-0.561s-0.415-0.231-0.652-0.25l-6.946-0.543-3.006-6.552c-0.096-0.211-0.251-0.39-0.448-0.516s-0.427-0.193-0.661-0.193c-0.235-0-0.464 0.067-0.661 0.192s-0.353 0.305-0.449 0.516l-3.006 6.553-6.946 0.543c-0.233 0.018-0.456 0.102-0.643 0.242s-0.327 0.329-0.407 0.546-0.094 0.452-0.042 0.676c0.052 0.225 0.169 0.43 0.337 0.591l5.133 4.927-1.815 7.741c-0.055 0.234-0.037 0.479 0.051 0.704s0.243 0.417 0.444 0.554c0.201 0.137 0.439 0.211 0.683 0.213s0.483-0.069 0.686-0.202l6.634-4.355 6.634 4.355c0.208 0.136 0.452 0.205 0.701 0.2s0.491-0.086 0.692-0.23c0.201-0.145 0.353-0.346 0.434-0.578s0.089-0.483 0.021-0.719l-2.229-7.678 5.527-4.897c0.362-0.322 0.495-0.823 0.339-1.278z"></path>
<path fill="#f3cd03" style="fill: var(--color3, #f3cd03)" d="M82.782 8.615c-0.077-0.222-0.218-0.417-0.405-0.561s-0.415-0.231-0.652-0.25l-6.946-0.543-3.006-6.552c-0.096-0.211-0.251-0.39-0.448-0.516s-0.427-0.193-0.661-0.193c-0.235-0-0.465 0.067-0.661 0.192s-0.353 0.305-0.449 0.516l-3.006 6.553-6.946 0.543c-0.233 0.018-0.457 0.102-0.643 0.242s-0.327 0.329-0.407 0.546c-0.080 0.217-0.094 0.452-0.042 0.676s0.169 0.43 0.337 0.591l5.133 4.927-1.815 7.741c-0.055 0.234-0.037 0.479 0.051 0.704s0.243 0.417 0.444 0.554c0.201 0.137 0.439 0.211 0.683 0.213s0.483-0.069 0.686-0.202l6.634-4.355 6.634 4.355c0.208 0.136 0.452 0.205 0.701 0.2s0.491-0.086 0.692-0.23c0.201-0.145 0.353-0.346 0.434-0.578s0.089-0.483 0.021-0.719l-2.228-7.678 5.527-4.897c0.362-0.322 0.495-0.823 0.339-1.278z"></path>
<path fill="#f3cd03" style="fill: var(--color3, #f3cd03)" d="M112.027 8.615c-0.077-0.222-0.217-0.417-0.405-0.561s-0.415-0.231-0.652-0.25l-6.946-0.543-3.006-6.552c-0.096-0.211-0.251-0.39-0.448-0.516s-0.427-0.193-0.661-0.193-0.464 0.067-0.661 0.192c-0.197 0.126-0.353 0.305-0.449 0.516l-3.006 6.553-6.946 0.543c-0.233 0.018-0.456 0.102-0.643 0.242s-0.327 0.329-0.407 0.546c-0.080 0.217-0.094 0.452-0.042 0.676s0.169 0.43 0.337 0.591l5.133 4.927-1.815 7.741c-0.055 0.234-0.037 0.479 0.051 0.704s0.243 0.417 0.444 0.554c0.201 0.137 0.439 0.211 0.683 0.213s0.483-0.069 0.686-0.202l6.634-4.355 6.634 4.355c0.207 0.136 0.452 0.205 0.701 0.2s0.49-0.086 0.692-0.23 0.353-0.346 0.434-0.578c0.081-0.232 0.089-0.483 0.021-0.719l-2.228-7.678 5.527-4.897c0.362-0.322 0.495-0.823 0.339-1.278z"></path>
<path fill="#f3cd03" style="fill: var(--color3, #f3cd03)" d="M122.468 14.787l-1.815 7.741c-0.056 0.234-0.039 0.48 0.048 0.705s0.242 0.418 0.444 0.555c0.201 0.137 0.44 0.211 0.684 0.212s0.484-0.070 0.687-0.204l6.634-4.355 6.634 4.355c0.207 0.136 0.452 0.206 0.701 0.2s0.491-0.086 0.692-0.23c0.201-0.144 0.352-0.346 0.433-0.578s0.089-0.483 0.021-0.719l-2.228-7.678 5.527-4.897c0.176-0.157 0.303-0.362 0.363-0.588s0.052-0.466-0.024-0.688c-0.077-0.222-0.217-0.417-0.405-0.561s-0.415-0.231-0.652-0.249l-6.947-0.545-3.006-6.552c-0.096-0.211-0.252-0.39-0.449-0.516s-0.427-0.193-0.661-0.193c-0.235 0-0.464 0.067-0.661 0.193s-0.353 0.305-0.449 0.516l-3.006 6.552-6.946 0.543c-0.233 0.018-0.457 0.102-0.643 0.242s-0.327 0.329-0.407 0.546c-0.080 0.217-0.094 0.452-0.042 0.676s0.169 0.43 0.337 0.591l5.134 4.927zM125.944 9.597c0.217-0.017 0.426-0.091 0.605-0.215s0.32-0.292 0.409-0.488l2.192-4.776 2.192 4.776c0.089 0.196 0.231 0.365 0.409 0.488s0.387 0.198 0.605 0.215l4.839 0.378-3.985 3.532c-0.346 0.307-0.484 0.78-0.357 1.221l1.526 5.261-4.552-2.989c-0.2-0.132-0.435-0.203-0.676-0.203s-0.476 0.071-0.676 0.203l-4.757 3.123 1.279-5.454c0.047-0.201 0.041-0.41-0.018-0.607s-0.168-0.377-0.318-0.521l-3.701-3.554 4.983-0.391z"></path>
</symbol>
<symbol id="icon-tick" viewBox="0 0 34 24">
<path fill="#fff" style="fill: var(--color2, #fff)" d="M31.627 0.479c-0.626-0.638-1.641-0.638-2.267 0l-19.205 19.577-7.382-7.525c-0.626-0.638-1.641-0.638-2.267 0s-0.626 1.673 0 2.311l8.515 8.68c0.626 0.638 1.641 0.638 2.267 0l20.338-20.732c0.626-0.638 0.626-1.673 0-2.311z"></path>
</symbol>
<symbol id="icon-triangle" viewBox="0 0 21 24">
<path fill="#02897a" style="fill: var(--color1, #02897a)" d="M19.566 9.668c1.83 1.016 1.83 3.648 0 4.663l-15.866 8.804c-1.777 0.986-3.961-0.299-3.961-2.332v-17.608c0-2.033 2.183-3.318 3.961-2.332l15.866 8.804z"></path>
</symbol>
<symbol id="icon-active" viewBox="0 0 24 24">
<path fill="#000" style="fill: var(--color4, #000)" d="M13.299 3.15l-6.893 2.122c-2.512 0.773-3.583 2.72-2.962 5.384l1.703 7.302c0.621 2.663 2.396 3.734 4.908 2.961l6.893-2.122c2.512-0.773 3.577-2.718 2.955-5.382l-1.703-7.302c-0.621-2.663-2.39-3.736-4.902-2.963z"></path>
<path fill="#e31313" style="fill: var(--color5, #e31313)" opacity="0.5" d="M12.805 6.416l-4.553 1.401c-1.659 0.511-2.378 1.749-1.988 3.423l1.071 4.59c0.391 1.674 1.552 2.334 3.211 1.823l4.553-1.401c1.659-0.511 2.374-1.747 1.983-3.422l-1.071-4.59c-0.391-1.674-1.548-2.335-3.207-1.824z"></path>
<path fill="#f03e3d" style="fill: var(--color6, #f03e3d); stroke: var(--color4, #000)" stroke="#000" stroke-linejoin="round" stroke-linecap="round" stroke-miterlimit="4" stroke-width="0.3529" d="M17.846 6.811l0.123 0.001c1.268 0.031 2.336 0.537 3.091 1.405 0.778 0.893 1.215 2.157 1.215 3.65v6.733c0 1.488-0.436 2.75-1.215 3.642-0.78 0.894-1.893 1.405-3.215 1.405h-6.514c-1.322 0-2.436-0.511-3.218-1.405-0.78-0.892-1.219-2.154-1.219-3.642v-6.733c0-1.493 0.438-2.756 1.218-3.65 0.782-0.895 1.897-1.406 3.219-1.406h6.514z"></path>
<path fill="#000" style="fill: var(--color4, #000)" d="M22.896 5.776c-0.61 0-1.104 0.542-1.104 1.211s0.494 1.211 1.104 1.211c0.61 0 1.104-0.542 1.104-1.211 0-0.321-0.116-0.629-0.323-0.856s-0.488-0.355-0.781-0.355z"></path>
<path fill="#000" style="fill: var(--color4, #000)" d="M18.516 13.769l-2.147 3.039c-0.090 0.132-0.226 0.218-0.375 0.239s-0.3-0.027-0.417-0.13l-2.061-1.773-1.857 2.634c-0.134 0.234-0.396 0.339-0.637 0.256s-0.4-0.334-0.387-0.611c-0.001-0.137 0.041-0.27 0.119-0.376l2.22-3.141c0.089-0.131 0.223-0.217 0.371-0.239s0.298 0.023 0.415 0.123l2.061 1.78 1.81-2.555c0.087-0.132 0.219-0.219 0.366-0.242s0.296 0.020 0.414 0.119c0.243 0.208 0.29 0.59 0.106 0.861v0.014z"></path>
</symbol>
<symbol id="icon-arrow" viewBox="0 0 24 24">
<path fill="#fff" style="fill: var(--color2, #fff)" d="M18.517 13.55l-12.908-12.908c-0.151-0.164-0.353-0.24-0.567-0.24-0.101 0-0.214 0.025-0.303 0.063-0.303 0.126-0.504 0.416-0.504 0.744v18.958c0 0.328 0.202 0.618 0.504 0.744 0.088 0.038 0.202 0.063 0.303 0.063 0.214 0 0.416-0.088 0.567-0.239l3.933-3.933 2.408 5.697c0.176 0.403 0.643 0.605 1.059 0.429l2.231-0.945c0.403-0.176 0.605-0.643 0.429-1.059l-2.534-6h4.815c0.328 0 0.618-0.202 0.744-0.504 0.126-0.29 0.063-0.643-0.176-0.87z"></path>
</symbol>
<symbol id="icon-chart" viewBox="0 0 24 24">
<path fill="#000" style="fill: var(--color4, #000)" d="M12.38 2.447l-6.818 1.949c-2.485 0.71-3.515 2.615-2.85 5.265l1.825 7.267c0.666 2.651 2.451 3.75 4.935 3.040l6.818-1.949c2.485-0.71 3.509-2.613 2.843-5.264l-1.825-7.267c-0.666-2.651-2.444-3.752-4.929-3.042z"></path>
<path fill="#11b5e4" style="fill: var(--color7, #11b5e4)" opacity="0.5" d="M15.74 11.971l-1.238-5.004c-0.449-1.815-1.573-2.629-3.051-2.213l-5.006 1.41c-1.502 0.423-2.084 1.717-1.635 3.533l1.238 5.004c0.456 1.844 1.554 2.634 3.056 2.211l5.006-1.41c1.478-0.416 2.086-1.686 1.63-3.531z"></path>
<path fill="#00acdd" style="fill: var(--color8, #00acdd)" d="M18.308 5.875h-7.058c-2.572 0-4.029 1.555-4.029 4.299v7.524c0 2.744 1.457 4.299 4.029 4.299h7.058c2.572 0 4.023-1.555 4.023-4.299v-7.524c0-2.744-1.451-4.299-4.023-4.299z"></path>
<path fill="#000" style="fill: var(--color4, #000)" d="M18.308 6.209c0.184 0 0.333-0.149 0.333-0.333s-0.149-0.333-0.333-0.333v0.667zM18.308 5.542c-0.184 0-0.333 0.149-0.333 0.333s0.149 0.333 0.333 0.333v-0.667zM18.308 5.542h-7.058v0.667h7.058v-0.667zM11.25 5.542c-1.354 0-2.459 0.411-3.222 1.226-0.761 0.812-1.14 1.978-1.14 3.407h0.667c0-1.316 0.349-2.299 0.96-2.951 0.608-0.649 1.518-1.015 2.736-1.015v-0.667zM6.887 10.175v7.524h0.667v-7.524h-0.667zM6.887 17.698c0 1.428 0.38 2.595 1.14 3.407 0.764 0.815 1.868 1.226 3.222 1.226v-0.667c-1.218 0-2.128-0.366-2.736-1.015-0.611-0.652-0.96-1.635-0.96-2.951h-0.667zM11.25 22.331h7.058v-0.667h-7.058v0.667zM18.308 22.331c1.354 0 2.457-0.411 3.219-1.226 0.759-0.812 1.137-1.978 1.137-3.406h-0.667c0 1.316-0.347 2.299-0.957 2.951-0.606 0.649-1.515 1.015-2.732 1.015v0.667zM22.664 17.698v-7.524h-0.667v7.524h0.667zM22.664 10.175c0-1.428-0.378-2.595-1.137-3.406-0.762-0.815-1.865-1.226-3.219-1.226v0.667c1.218 0 2.126 0.366 2.732 1.015 0.609 0.652 0.957 1.635 0.957 2.951h0.667z"></path>
<path fill="#000" style="fill: var(--color4, #000)" d="M14.802 9.171c-0.342 0-0.625 0.301-0.625 0.674v8.183c0 0.365 0.282 0.666 0.625 0.666 0.349 0 0.631-0.301 0.631-0.666v-8.183c0-0.373-0.282-0.674-0.631-0.674zM11.276 11.816c-0.343 0-0.625 0.301-0.625 0.674v5.539c0 0.365 0.282 0.666 0.625 0.666 0.349 0 0.631-0.301 0.631-0.666v-5.539c0-0.373-0.282-0.674-0.631-0.674zM17.65 15.413c0-0.373 0.282-0.674 0.631-0.674 0.342 0 0.625 0.301 0.625 0.674v2.615c0 0.365-0.282 0.666-0.631 0.666-0.342 0-0.625-0.301-0.625-0.666v-2.615z"></path>
<path fill="#000" style="fill: var(--color4, #000)" d="M14.311 9.845c0-0.308 0.231-0.54 0.491-0.54v-0.267c-0.425 0-0.758 0.37-0.758 0.807h0.267zM14.311 18.028v-8.183h-0.267v8.183h0.267zM14.802 18.561c-0.261 0-0.491-0.233-0.491-0.533h-0.267c0 0.431 0.334 0.8 0.758 0.8v-0.267zM15.3 18.028c0 0.299-0.229 0.533-0.498 0.533v0.267c0.43 0 0.765-0.368 0.765-0.8h-0.267zM15.3 9.845v8.183h0.267v-8.183h-0.267zM14.802 9.305c0.268 0 0.498 0.233 0.498 0.54h0.267c0-0.438-0.334-0.807-0.765-0.807v0.267zM10.785 12.489c0-0.308 0.231-0.54 0.491-0.54v-0.267c-0.425 0-0.758 0.37-0.758 0.807h0.267zM10.785 18.028v-5.539h-0.267v5.539h0.267zM11.276 18.561c-0.261 0-0.491-0.233-0.491-0.533h-0.267c0 0.431 0.334 0.8 0.758 0.8v-0.267zM11.774 18.028c0 0.299-0.229 0.533-0.498 0.533v0.267c0.43 0 0.765-0.368 0.765-0.8h-0.267zM11.774 12.489v5.539h0.267v-5.539h-0.267zM11.276 11.949c0.268 0 0.498 0.233 0.498 0.54h0.267c0-0.438-0.334-0.807-0.765-0.807v0.267zM18.281 14.606c-0.431 0-0.765 0.369-0.765 0.807h0.267c0-0.307 0.23-0.54 0.498-0.54v-0.267zM19.039 15.413c0-0.437-0.333-0.807-0.758-0.807v0.267c0.26 0 0.491 0.232 0.491 0.54h0.267zM19.039 18.028v-2.615h-0.267v2.615h0.267zM18.274 18.828c0.43 0 0.765-0.368 0.765-0.8h-0.267c0 0.299-0.23 0.533-0.498 0.533v0.267zM17.516 18.028c0 0.431 0.334 0.8 0.758 0.8v-0.267c-0.261 0-0.491-0.233-0.491-0.533h-0.267zM17.516 15.413v2.615h0.267v-2.615h-0.267z"></path>
</symbol>
<symbol id="icon-heart" viewBox="0 0 24 24">
<path fill="#fff" style="fill: var(--color2, #fff)" d="M12 21.964c0.214 0 0.429-0.080 0.589-0.241l8.344-8.036c0.12-0.121 3.067-2.813 3.067-6.027 0-3.924-2.397-6.268-6.402-6.268-2.344 0-4.54 1.848-5.598 2.893-1.058-1.045-3.254-2.893-5.598-2.893-4.004 0-6.402 2.344-6.402 6.268 0 3.214 2.946 5.906 3.054 6l8.357 8.062c0.161 0.161 0.375 0.241 0.589 0.241z"></path>
</symbol>
<symbol id="icon-wave" viewBox="0 0 24 24">
<path fill="#fff" style="fill: var(--color2, #fff)" d="M12.643 10.19l1.56 0.726 2.321-0.69v-1.619c0-2.75-2.321-4.952-5.095-4.952-2.762 0-5.095 2.19-5.095 4.917v7.381c0 0.679-0.548 1.214-1.214 1.214s-1.214-0.536-1.214-1.214v-3.119h-3.905c0 3.131 0 3.167 0 3.167 0 2.821 2.286 5.107 5.107 5.107 2.798 0 5.107-2.25 5.107-5.036v-7.286c0-0.667 0.548-1.214 1.214-1.214s1.214 0.548 1.214 1.214v1.405zM18.952 12.833v3.274c0 0.667-0.548 1.202-1.214 1.202s-1.214-0.536-1.214-1.202v-3.214l-2.321 0.69-1.56-0.726v3.19c0 2.798 2.298 5.060 5.107 5.060 2.821 0 5.107-2.286 5.107-5.107 0 0 0-0.036 0-3.167h-3.905z"></path>
</symbol>
<symbol id="icon-plus_circle" viewBox="0 0 24 24">
<path fill="#02897a" style="fill: var(--color1, #02897a)" d="M0 12c0-6.624 5.376-12 12-12s12 5.376 12 12c0 6.624-5.376 12-12 12s-12-5.376-12-12zM13.2 13.2h4.8v-2.4h-4.8v-4.8h-2.4v4.8h-4.8v2.4h4.8v4.8h2.4v-4.8z"></path>
</symbol>
<symbol id="icon-minus_circle" viewBox="0 0 24 24">
<path fill="#02897a" style="fill: var(--color1, #02897a)" d="M0 12c0-6.624 5.376-12 12-12s12 5.376 12 12c0 6.624-5.376 12-12 12s-12-5.376-12-12zM6 13.2h12v-2.4h-12v2.4z"></path>
</symbol>
<symbol id="icon-Accountants" viewBox="0 0 20 24">
<path fill="#d6b1ff" style="fill: var(--color9, #d6b1ff)" d="M19 24h-9c-0.265 0-0.52-0.105-0.707-0.293s-0.293-0.442-0.293-0.707v-2c0-0.265 0.105-0.52 0.293-0.707s0.442-0.293 0.707-0.293h9c0.265 0 0.52 0.105 0.707 0.293s0.293 0.442 0.293 0.707v2c0 0.265-0.105 0.52-0.293 0.707s-0.442 0.293-0.707 0.293z"></path>
<path fill="#11b5e4" style="fill: var(--color7, #11b5e4)" d="M19 0h-18c-0.265 0-0.52 0.105-0.707 0.293s-0.293 0.442-0.293 0.707v2c0 0.265 0.105 0.52 0.293 0.707s0.442 0.293 0.707 0.293h18c0.265 0 0.52-0.105 0.707-0.293s0.293-0.442 0.293-0.707v-2c0-0.265-0.105-0.52-0.293-0.707s-0.442-0.293-0.707-0.293z"></path>
<path fill="#11b5e4" style="fill: var(--color7, #11b5e4)" d="M19 6h-18c-0.265 0-0.52 0.105-0.707 0.293s-0.293 0.442-0.293 0.707v10c0 0.265 0.105 0.52 0.293 0.707s0.442 0.293 0.707 0.293h18c0.265 0 0.52-0.105 0.707-0.293s0.293-0.442 0.293-0.707v-10c0-0.265-0.105-0.52-0.293-0.707s-0.442-0.293-0.707-0.293z"></path>
</symbol>
<symbol id="icon-Enterpreneur" viewBox="0 0 24 24">
<path fill="#d6b1ff" style="fill: var(--color9, #d6b1ff)" d="M18 10h6l-3-4-3 4zM18 14h6l-3 4-3-4z"></path>
<path fill="#02897a" style="fill: var(--color1, #02897a)" d="M1 0h6v24h-6c-0.265 0-0.52-0.105-0.707-0.293s-0.293-0.442-0.293-0.707v-22c0-0.265 0.105-0.52 0.293-0.707s0.442-0.293 0.707-0.293z"></path>
<path fill="#02897a" style="fill: var(--color1, #02897a)" d="M9 0h6c0.265 0 0.52 0.105 0.707 0.293s0.293 0.442 0.293 0.707v22c0 0.265-0.105 0.52-0.293 0.707s-0.442 0.293-0.707 0.293h-6v-24z"></path>
</symbol>
<symbol id="icon-Universities" viewBox="0 0 24 24">
<path fill="#d6b1ff" style="fill: var(--color9, #d6b1ff)" d="M4.364 0h-3.273c-0.289 0-0.567 0.115-0.771 0.32s-0.32 0.482-0.32 0.771v21.818c0 0.289 0.115 0.567 0.32 0.771s0.482 0.32 0.771 0.32h3.273v-24z"></path>
<path fill="#f03e3d" style="fill: var(--color6, #f03e3d)" d="M6.545 24h10.909v-24h-10.909v24zM12 19.636c-0.289 0-0.567-0.115-0.771-0.32s-0.32-0.482-0.32-0.771c0-0.289 0.115-0.567 0.32-0.771s0.482-0.32 0.771-0.32c0.289 0 0.567 0.115 0.771 0.32s0.32 0.482 0.32 0.771c0 0.289-0.115 0.567-0.32 0.771s-0.482 0.32-0.771 0.32zM12 4.364c0.289 0 0.567 0.115 0.771 0.32s0.32 0.482 0.32 0.771c0 0.289-0.115 0.567-0.32 0.771s-0.482 0.32-0.771 0.32c-0.289 0-0.567-0.115-0.771-0.32s-0.32-0.482-0.32-0.771c0-0.289 0.115-0.567 0.32-0.771s0.482-0.32 0.771-0.32zM12 10.909c0.289 0 0.567 0.115 0.771 0.32s0.32 0.482 0.32 0.771c0 0.289-0.115 0.567-0.32 0.771s-0.482 0.32-0.771 0.32c-0.289 0-0.567-0.115-0.771-0.32s-0.32-0.482-0.32-0.771c0-0.289 0.115-0.567 0.32-0.771s0.482-0.32 0.771-0.32z"></path>
<path fill="#f03e3d" style="fill: var(--color6, #f03e3d)" d="M22.909 0h-3.273v24h3.273c0.289 0 0.567-0.115 0.771-0.32s0.32-0.482 0.32-0.771v-21.818c0-0.289-0.115-0.567-0.32-0.771s-0.482-0.32-0.771-0.32z"></path>
</symbol>
<symbol id="icon-facebook" viewBox="0 0 24 24">
<path fill="none" stroke="#02897a" style="stroke: var(--color1, #02897a)" stroke-linejoin="round" stroke-linecap="round" stroke-miterlimit="4" stroke-width="2" d="M18 2h-3c-1.326 0-2.598 0.527-3.536 1.464s-1.464 2.209-1.464 3.536v3h-3v4h3v8h4v-8h3l1-4h-4v-3c0-0.265 0.105-0.52 0.293-0.707s0.442-0.293 0.707-0.293h3v-4z"></path>
</symbol>
<symbol id="icon-instagram-1" viewBox="0 0 24 24">
<path fill="none" stroke="#02897a" style="stroke: var(--color1, #02897a)" stroke-linejoin="round" stroke-linecap="round" stroke-miterlimit="4" stroke-width="2" d="M17 2h-10c-2.761 0-5 2.239-5 5v10c0 2.761 2.239 5 5 5h10c2.761 0 5-2.239 5-5v-10c0-2.761-2.239-5-5-5z"></path>
<path fill="none" stroke="#02897a" style="stroke: var(--color1, #02897a)" stroke-linejoin="round" stroke-linecap="round" stroke-miterlimit="4" stroke-width="2" d="M16 11.37c0.123 0.832-0.019 1.682-0.406 2.429s-1.001 1.352-1.752 1.731c-0.752 0.378-1.603 0.51-2.434 0.376s-1.598-0.526-2.193-1.121-0.987-1.362-1.121-2.193c-0.134-0.831-0.002-1.682 0.376-2.434s0.984-1.365 1.731-1.752c0.747-0.387 1.597-0.53 2.429-0.406 0.849 0.126 1.635 0.521 2.242 1.128s1.002 1.393 1.128 2.242z"></path>
<path fill="none" stroke="#02897a" style="stroke: var(--color1, #02897a)" stroke-linejoin="round" stroke-linecap="round" stroke-miterlimit="4" stroke-width="2" d="M17.5 6.5h0.010"></path>
</symbol>
<symbol id="icon-twitter-1" viewBox="0 0 24 24">
<path fill="none" stroke="#02897a" style="stroke: var(--color1, #02897a)" stroke-linejoin="round" stroke-linecap="round" stroke-miterlimit="4" stroke-width="2" d="M23 3.010c-0.958 0.675-2.018 1.192-3.14 1.53-0.602-0.692-1.403-1.183-2.293-1.406s-1.827-0.167-2.685 0.161c-0.857 0.327-1.594 0.91-2.109 1.669s-0.785 1.659-0.773 2.576v1c-1.757 0.046-3.499-0.344-5.069-1.135s-2.921-1.957-3.931-3.395c0 0-4 9 5 13-2.059 1.398-4.513 2.099-7 2 9 5 20 0 20-11.5-0.001-0.279-0.028-0.556-0.080-0.83 1.021-1.007 1.741-2.277 2.080-3.67v0z"></path>
</symbol>
<symbol id="icon-logo" viewBox="0 0 27 24">
<path fill="#02bc6b" style="fill: var(--color10, #02bc6b)" d="M2.089 22.743c-1.149 0-2.089-0.93-2.089-2.068v-7.229h5.258v-0.008h3.16c0.815-0.021 1.504-0.724 1.504-1.551 0-0.848-0.71-1.551-1.567-1.551l-8.355 0.001v-2.069c0-1.137 0.94-2.068 2.089-2.068h6.266c1.587 0 2.945 0.558 4.052 1.675 1.128 1.096 1.692 2.44 1.692 4.012 0 1.551-0.543 2.895-1.65 3.991s-2.444 1.675-4.010 1.696h-4.261v3.102c0 1.137-0.94 2.068-2.089 2.068z"></path>
<path fill="#02897a" style="fill: var(--color1, #02897a)" d="M16.732 3.8c2.308 2.219 3.47 4.983 3.47 8.124 0 3.089-1.114 5.85-3.386 8.076l-3.226-3.005c1.413-1.384 2.107-3.051 2.107-5.071 0-2.035-0.714-3.7-2.161-5.091l3.196-3.033z"></path>
<path fill="#035b81" style="fill: var(--color11, #035b81)" d="M21.67 0c3.324 3.285 4.996 7.359 4.996 12.034 0 4.602-1.605 8.673-4.874 11.966l-3.113-3.011c2.435-2.452 3.629-5.427 3.629-8.954 0-3.563-1.234-6.535-3.722-8.994l3.085-3.040z"></path>
<path fill="#028e37" style="fill: var(--color12, #028e37)" d="M0 17.59h4.177v3.085c0 1.137-0.94 2.068-2.089 2.068s-2.089-0.93-2.089-2.068v-3.085z"></path>
</symbol>
<symbol id="icon-Airbnb-Logo" viewBox="0 0 506 159">
<path fill="#ff385c" style="fill: var(--color1, #ff385c)" d="M144.945 112.687c-0.793-1.938-1.537-3.975-2.33-5.714l-3.668-8.298-0.149-0.149c-10.905-23.85-22.554-48.097-34.898-71.947l-0.496-0.994c-1.239-2.335-2.478-4.919-3.767-7.304-1.586-2.832-3.123-5.863-5.651-8.745-2.464-3.015-5.566-5.445-9.080-7.113s-7.355-2.533-11.244-2.533c-3.889 0-7.729 0.865-11.244 2.533s-6.616 4.098-9.080 7.113c-2.33 2.882-4.065 5.913-5.651 8.745-1.239 2.584-2.478 5.118-3.767 7.453l-0.495 0.994c-12.145 23.85-23.992 48.097-34.898 71.947l-0.297 0.298c-1.090 2.584-2.379 5.267-3.619 8.149-0.793 1.739-1.586 3.627-2.379 5.714-2.141 5.465-2.825 11.394-1.984 17.204s3.178 11.3 6.781 15.929 8.346 8.237 13.764 10.469c5.417 2.232 11.321 3.010 17.131 2.258 5.569-0.735 10.932-2.594 15.763-5.465 6.444-3.627 12.64-8.894 19.581-16.496 6.94 7.602 13.285 12.869 19.58 16.546 6.054 3.562 12.91 5.528 19.927 5.714 8.126 0.034 15.991-2.881 22.14-8.205s10.171-12.699 11.32-20.763c1.328-5.795 0.879-11.856-1.288-17.391v0.050zM73.761 120.935c-8.526-10.931-14.078-20.968-15.962-29.564-0.78-3.185-0.949-6.49-0.495-9.739 0.347-2.534 1.289-4.77 2.577-6.658 2.974-4.323 8.179-7.006 13.88-7.006 2.707-0.083 5.392 0.509 7.815 1.723s4.506 3.012 6.065 5.233c1.289 1.987 2.231 4.174 2.528 6.708 0.495 2.882 0.297 6.211-0.496 9.739-1.884 8.447-7.436 18.583-15.912 29.564zM136.914 128.289c-0.563 4.094-2.187 7.968-4.709 11.238s-5.855 5.819-9.666 7.395c-3.767 1.59-7.931 2.037-11.996 1.59-3.966-0.497-7.931-1.789-11.996-4.174-6.749-4.181-12.818-9.376-17.994-15.403 10.41-12.919 16.706-24.695 19.085-35.179 1.14-4.969 1.289-9.44 0.793-13.565-0.619-3.909-2.073-7.638-4.263-10.931-2.5-3.571-5.838-6.472-9.719-8.447s-8.187-2.965-12.538-2.881c-9.17 0-17.35 4.273-22.307 11.279-2.231 3.285-3.673 7.044-4.214 10.981-0.644 4.174-0.496 8.795 0.793 13.565 2.38 10.484 8.824 22.409 19.085 35.278-5.089 6.142-11.171 11.383-17.994 15.502-4.115 2.385-8.030 3.627-11.996 4.124-6.167 0.792-12.397-0.888-17.335-4.675s-8.186-9.374-9.036-15.548c-0.496-3.975-0.149-7.95 1.438-12.422 0.496-1.59 1.239-3.18 2.032-5.068 1.090-2.584 2.379-5.267 3.619-7.95l0.198-0.348c10.707-23.701 22.406-47.899 34.551-71.6l0.496-0.994c1.239-2.385 2.478-4.919 3.767-7.304 1.289-2.534 2.677-4.969 4.461-6.956 1.545-1.848 3.475-3.335 5.654-4.354s4.556-1.548 6.961-1.548c2.405 0 4.781 0.529 6.961 1.548s4.109 2.506 5.654 4.354c1.735 1.987 3.172 4.422 4.461 6.956 1.239 2.385 2.478 4.969 3.767 7.304l0.496 0.994c12.095 23.701 23.794 47.899 34.7 71.6l0.148 0.149c1.289 2.584 2.38 5.465 3.619 7.95 0.793 1.938 1.586 3.478 2.082 5.118 0.942 4.472 1.437 8.447 0.942 12.422zM205.916 119.842c-3.736 0.055-7.435-0.734-10.825-2.308s-6.382-3.893-8.756-6.785c-5.333-6.162-8.164-14.106-7.931-22.26-0.081-8.332 2.84-16.413 8.229-22.757 2.492-2.928 5.595-5.274 9.089-6.87s7.296-2.406 11.136-2.371c3.613-0.099 7.193 0.724 10.401 2.393s5.941 4.128 7.94 7.147l0.496-7.801h14.474v60.022h-14.524l-0.496-8.745c-2.061 3.223-4.91 5.864-8.277 7.673s-7.138 2.725-10.957 2.662zM209.684 105.532c2.875 0 5.403-0.795 7.782-2.236 2.181-1.59 3.966-3.677 5.354-6.211 1.239-2.534 1.883-5.565 1.883-8.944 0.193-2.935-0.377-5.869-1.654-8.517s-3.218-4.918-5.633-6.588c-2.32-1.449-4.999-2.217-7.733-2.217s-5.413 0.768-7.733 2.217c-2.181 1.59-3.966 3.677-5.354 6.211-1.311 2.795-1.956 5.857-1.884 8.944-0.193 2.935 0.377 5.869 1.654 8.517s3.218 4.918 5.633 6.588c2.33 1.441 4.858 2.236 7.684 2.236zM264.955 42.032c0 1.739-0.298 3.329-1.091 4.621-0.793 1.242-1.883 2.385-3.321 3.18s-2.974 1.093-4.56 1.093-3.173-0.298-4.61-1.093c-1.359-0.758-2.503-1.853-3.321-3.18-0.768-1.415-1.144-3.010-1.091-4.621 0-1.789 0.347-3.379 1.091-4.621 0.793-1.491 1.933-2.385 3.321-3.18 1.437-0.795 2.974-1.143 4.61-1.143 1.578-0.037 3.138 0.338 4.528 1.087s2.563 1.847 3.403 3.186c0.722 1.449 1.079 3.052 1.041 4.67zM248.101 118.054v-59.923h15.763v60.023h-15.813l0.050-0.099zM305.999 73.832v0.199c-0.743-0.348-1.735-0.497-2.478-0.646-0.992-0.199-1.785-0.199-2.726-0.199-4.412 0-7.733 1.292-9.914 3.975-2.379 2.733-3.47 6.559-3.47 11.478v29.465h-15.813v-60.023h14.524l0.496 9.093c1.586-3.18 3.47-5.565 6.147-7.354 2.663-1.738 5.797-2.606 8.972-2.485 1.14 0 2.231 0.1 3.173 0.298 0.496 0.149 0.793 0.149 1.090 0.298v15.9zM312.344 118.054v-84.568h15.765v32.297c2.229-2.882 4.757-5.118 7.931-6.857 5.021-2.468 10.726-3.169 16.196-1.988 5.466 1.181 10.38 4.174 13.941 8.497 5.346 6.174 8.179 14.139 7.931 22.31 0.083 8.332-2.84 16.413-8.227 22.757-2.493 2.928-5.597 5.273-9.088 6.87-3.495 1.597-7.298 2.406-11.136 2.371-3.612 0.099-7.193-0.724-10.402-2.393s-5.94-4.128-7.941-7.147l-0.496 7.801-14.474 0.149v-0.099zM342.829 105.532c2.827 0 5.355-0.795 7.734-2.236 2.181-1.59 3.966-3.677 5.355-6.211 1.288-2.534 1.883-5.565 1.883-8.944 0-3.329-0.595-6.36-1.883-8.894-1.304-2.444-3.132-4.565-5.355-6.211-2.321-1.449-4.999-2.217-7.734-2.217-2.732 0-5.412 0.768-7.731 2.217-2.232 1.59-3.969 3.677-5.406 6.211-1.31 2.795-1.956 5.857-1.883 8.944-0.194 2.935 0.375 5.869 1.654 8.517s3.218 4.918 5.635 6.588c2.328 1.441 4.856 2.236 7.731 2.236zM380.058 118.103v-60.023h14.523l0.496 7.801c1.825-2.99 4.414-5.438 7.502-7.089 3.085-1.651 6.554-2.446 10.049-2.302 3.994-0.069 7.921 1.044 11.289 3.2s6.029 5.26 7.645 8.923c1.736 3.776 2.678 8.447 2.678 13.664v35.974h-15.814v-33.887c0-4.174-0.941-7.453-2.824-9.888-1.886-2.385-4.461-3.677-7.734-3.677-2.379 0-4.461 0.497-6.296 1.59-1.733 1.143-3.171 2.584-4.261 4.621-1.104 2.059-1.65 4.372-1.587 6.708v34.384h-15.665zM442.122 118.103v-84.667h15.811v32.297c2.143-2.898 4.929-5.256 8.138-6.886s6.754-2.488 10.354-2.505c3.733-0.055 7.435 0.734 10.825 2.308 3.387 1.574 6.382 3.893 8.754 6.785 5.307 6.174 8.118 14.114 7.88 22.26 0.089 8.332-2.837 16.415-8.227 22.757-2.493 2.928-5.597 5.274-9.088 6.87-3.495 1.597-7.298 2.406-11.136 2.372-3.612 0.099-7.193-0.724-10.402-2.393s-5.94-4.128-7.941-7.147l-0.445 7.801-14.523 0.149zM472.755 105.532c2.875 0 5.403-0.795 7.734-2.236 2.229-1.59 3.966-3.677 5.403-6.211 1.24-2.534 1.883-5.565 1.883-8.944 0.194-2.935-0.375-5.869-1.654-8.517-1.275-2.648-3.218-4.918-5.632-6.588-2.321-1.449-4.999-2.217-7.734-2.217s-5.412 0.768-7.734 2.217c-2.181 1.59-3.966 3.677-5.352 6.211-1.383 2.77-2.032 5.85-1.886 8.944-0.191 2.935 0.378 5.869 1.654 8.517 1.278 2.648 3.221 4.918 5.635 6.588 2.331 1.441 4.71 2.236 7.683 2.236z"></path>
</symbol>
<symbol id="icon-Google-Logo" viewBox="0 0 426 146">
<path fill="#ea4335" style="fill: var(--color1, #ea4335)" d="M181.421 74.872c0 20.265-15.658 35.199-34.874 35.199s-34.874-14.933-34.874-35.199c0-20.408 15.658-35.199 34.874-35.199s34.874 14.79 34.874 35.199zM166.155 74.872c0-12.664-9.075-21.329-19.607-21.329s-19.607 8.665-19.607 21.329c0 12.537 9.075 21.329 19.607 21.329s19.607-8.808 19.607-21.329z"></path>
<path fill="#fbbc05" style="fill: var(--color2, #fbbc05)" d="M256.654 74.872c0 20.265-15.658 35.199-34.874 35.199s-34.874-14.933-34.874-35.199c0-20.392 15.658-35.199 34.874-35.199s34.874 14.79 34.874 35.199zM241.388 74.872c0-12.664-9.075-21.329-19.608-21.329s-19.607 8.665-19.607 21.329c0 12.537 9.075 21.329 19.607 21.329s19.608-8.808 19.608-21.329z"></path>
<path fill="#4285f4" style="fill: var(--color3, #4285f4)" d="M328.751 41.8v63.193c0 25.994-15.14 36.611-33.040 36.611-16.848 0-26.989-11.41-30.814-20.742l13.291-5.602c2.367 5.729 8.166 12.489 17.508 12.489 11.458 0 18.557-7.157 18.557-20.63v-5.062h-0.531c-3.419 4.269-10.001 7.998-18.308 7.998-17.381 0-33.306-15.33-33.306-35.056 0-19.869 15.925-35.326 33.306-35.326 8.293 0 14.874 3.729 18.308 7.871h0.531v-5.729h14.498v-0.016zM315.334 74.999c0-12.394-8.164-21.456-18.557-21.456-10.532 0-19.356 9.061-19.356 21.456 0 12.267 8.824 21.202 19.356 21.202 10.392 0 18.557-8.935 18.557-21.202z"></path>
<path fill="#34a853" style="fill: var(--color4, #34a853)" d="M352.654 4.761v103.152h-14.889v-103.152h14.889z"></path>
<path fill="#ea4335" style="fill: var(--color1, #ea4335)" d="M410.678 86.457l11.849 7.998c-3.825 5.729-13.041 15.6-28.963 15.6-19.751 0-34.497-15.457-34.497-35.199 0-20.932 14.872-35.199 32.789-35.199 18.040 0 26.864 14.536 29.746 22.392l1.586 3.999-46.472 19.488c3.557 7.062 9.090 10.664 16.848 10.664 7.773 0 13.166-3.872 17.114-9.744zM374.207 73.793l31.063-13.061c-1.708-4.396-6.847-7.459-12.898-7.459-7.758 0-18.56 6.935-18.165 20.519z"></path>
<path fill="#4285f4" style="fill: var(--color3, #4285f4)" d="M55.312 65.716v-14.933h49.701c0.486 2.603 0.736 5.681 0.736 9.014 0 11.204-3.025 25.058-12.774 34.929-9.482 9.998-21.598 15.33-37.648 15.33-29.748 0-54.763-24.534-54.763-54.655s25.015-54.655 54.763-54.655c16.457 0 28.181 6.538 36.99 15.060l-10.407 10.537c-6.316-5.999-14.874-10.664-26.598-10.664-21.724 0-38.714 17.726-38.714 39.722s16.99 39.722 38.714 39.722c14.090 0 22.115-5.729 27.256-10.934 4.169-4.221 6.912-10.252 7.993-18.488l-35.25 0.016z"></path>
</symbol>
<symbol id="icon-Microsoft-Logo" viewBox="0 0 1031 213">
<path fill="#737373" style="fill: var(--color1, #737373)" d="M363.963 122.681l-6.146 16.842h-0.512c-1.024-3.798-2.902-9.577-5.975-16.512l-32.948-80.081h-32.265v127.635h21.339v-78.761c0-4.954 0-10.567-0.171-17.502-0.17-3.467-0.512-6.109-0.682-8.091h0.512c1.024 4.953 2.219 8.586 3.073 10.897l39.605 93.126h15.023l39.264-93.951c0.854-2.146 1.707-6.439 2.561-10.072h0.512c-0.512 9.412-0.853 17.833-1.024 22.951v80.907h22.705v-127.469h-31.070l-33.801 80.081zM450.344 78.595h22.193v91.474h-22.193v-91.474zM461.611 39.958c-3.756 0-6.829 1.321-9.389 3.633s-3.927 5.284-3.927 8.916c0 3.467 1.366 6.439 3.927 8.751s5.633 3.467 9.389 3.467 6.999-1.321 9.389-3.467c2.561-2.312 3.927-5.284 3.927-8.751s-1.366-6.44-3.927-8.916c-2.22-2.312-5.463-3.633-9.389-3.633zM551.234 77.77c-4.095-0.826-8.365-1.321-12.46-1.321-10.074 0-19.291 2.146-26.974 6.439s-13.826 10.238-17.752 17.668c-4.1 7.595-6.148 16.346-6.148 26.418 0 8.751 2.048 16.512 5.974 23.612 3.926 6.935 9.391 12.549 16.73 16.347 7 3.798 15.196 5.779 24.413 5.779 10.587 0 19.635-2.146 26.804-6.109l0.17-0.165v-19.814l-0.852 0.661c-3.243 2.312-7 4.293-10.756 5.448-3.926 1.321-7.513 1.981-10.582 1.981-8.878 0-15.878-2.477-20.831-7.926-5.122-5.283-7.683-12.549-7.683-21.63 0-9.412 2.561-16.842 7.857-22.291 5.291-5.449 12.291-8.256 20.826-8.256 7.169 0 14.508 2.312 21.169 6.935l0.852 0.66v-20.969l-0.17-0.166c-2.905-1.155-6.148-2.477-10.587-3.302zM624.473 77.109c-5.461 0-10.582 1.651-15.021 5.119-3.757 2.972-6.317 7.265-8.539 12.384h-0.17v-16.016h-22.191v91.474h22.191v-46.728c0-7.926 1.709-14.53 5.465-19.319 3.757-4.953 8.535-7.43 14.339-7.43 2.048 0 4.095 0.496 6.656 0.826 2.391 0.66 4.1 1.321 5.291 2.146l0.857 0.66v-21.465l-0.513-0.165c-1.534-0.991-4.609-1.486-8.365-1.486zM684.906 76.614c-15.534 0-28 4.458-36.704 13.209-8.878 8.751-13.148 20.805-13.148 35.996 0 14.2 4.439 25.758 12.978 34.179 8.535 8.256 20.143 12.549 34.651 12.549 15.196 0 27.317-4.458 36.021-13.374 8.878-8.916 13.148-20.805 13.148-35.5 0-14.53-4.1-26.088-12.465-34.509-8.021-8.421-19.799-12.549-34.482-12.549zM702.658 146.953c-4.095 5.119-10.582 7.595-18.608 7.595-8.021 0-14.508-2.477-19.117-7.926-4.609-5.118-6.831-12.549-6.831-21.96 0-9.742 2.391-17.172 6.831-22.456 4.609-5.283 10.926-7.926 18.947-7.926 7.852 0 14 2.477 18.439 7.595s6.826 12.549 6.826 22.291c-0.339 9.907-2.217 17.667-6.487 22.786zM781.357 116.572c-6.995-2.807-11.434-4.954-13.482-6.77-1.709-1.651-2.561-3.963-2.561-6.935 0-2.477 1.022-4.954 3.582-6.605s5.465-2.477 9.73-2.477c3.757 0 7.683 0.66 11.439 1.651s7.169 2.477 9.9 4.458l0.857 0.661v-20.145l-0.513-0.165c-2.561-0.991-5.974-1.981-10.074-2.807-4.095-0.661-7.852-0.991-10.926-0.991-10.582 0-19.291 2.477-26.117 7.926-6.831 5.119-10.074 12.053-10.074 20.145 0 4.293 0.682 8.091 2.222 11.227 1.534 3.137 3.752 6.11 6.826 8.586 3.074 2.312 7.513 4.953 13.656 7.43 5.122 2.146 9.048 3.798 11.439 5.118s3.926 2.807 5.122 3.963c0.852 1.321 1.365 2.972 1.365 5.119 0 6.109-4.778 9.082-14.508 9.082-3.757 0-7.683-0.661-12.291-2.146-4.613-1.486-8.878-3.633-12.465-6.11l-0.852-0.66v20.97l0.513 0.165c3.243 1.486 7.169 2.477 11.947 3.633 4.783 0.825 9.048 1.486 12.804 1.486 11.439 0 20.826-2.477 27.487-7.926 6.826-5.284 10.413-12.054 10.413-20.805 0-6.109-1.709-11.558-5.465-15.686-4.947-3.963-11.095-8.091-19.974-11.393zM865.351 76.614c-15.534 0-28 4.458-36.704 13.209-8.709 8.751-13.148 20.805-13.148 35.996 0 14.2 4.439 25.758 12.978 34.179 8.535 8.256 20.143 12.549 34.651 12.549 15.196 0 27.317-4.458 36.021-13.374 8.878-8.916 13.148-20.805 13.148-35.5 0-14.53-4.1-26.088-12.465-34.509-8.021-8.421-19.799-12.549-34.482-12.549zM882.933 146.953c-4.095 5.119-10.582 7.595-18.608 7.595-8.191 0-14.508-2.477-19.117-7.926-4.613-5.118-6.831-12.549-6.831-21.96 0-9.742 2.391-17.172 6.831-22.456 4.609-5.283 10.926-7.926 18.947-7.926 7.683 0 14 2.477 18.439 7.595 4.434 5.119 6.826 12.549 6.826 22.291 0 9.907-2.217 17.667-6.487 22.786zM1030.944 96.262v-17.667h-22.365v-27.079l-0.682 0.165-21.683 6.275v20.639h-33.46v-11.558c0-5.284 1.37-9.412 3.757-12.053 2.391-2.642 5.979-3.963 10.413-3.963 3.074 0 6.317 0.66 9.904 2.146l0.852 0.495v-18.658l-0.513-0.165c-3.069-0.991-7.169-1.651-12.461-1.651-6.656 0-12.461 1.486-17.756 3.963-5.291 2.807-9.217 6.605-12.117 11.723-2.905 4.953-4.439 10.567-4.439 17.007v12.714h-15.534v17.502h15.534v73.972h22.36v-73.807h33.46v47.058c0 19.319 9.391 29.061 28.169 29.061 3.074 0 6.317-0.496 9.391-0.991 3.243-0.66 5.63-1.486 7-2.146l0.17-0.165v-17.667l-0.857 0.66c-1.365 0.826-2.561 1.486-4.609 1.981-1.704 0.495-3.243 0.66-4.439 0.66-4.434 0-7.508-0.991-9.73-3.467-2.048-2.312-3.069-6.109-3.069-11.723v-43.261h22.704z"></path>
<path fill="#f25022" style="fill: var(--color2, #f25022)" d="M0 0h104.648v101.216h-104.648v-101.216z"></path>
<path fill="#7fba00" style="fill: var(--color3, #7fba00)" d="M115.573 0h104.648v101.216h-104.648v-101.216z"></path>
<path fill="#00a4ef" style="fill: var(--color4, #00a4ef)" d="M0 111.784h104.648v101.216h-104.648v-101.216z"></path>
<path fill="#ffb900" style="fill: var(--color5, #ffb900)" d="M115.573 111.784h104.648v101.216h-104.648v-101.216z"></path>
</symbol>
<symbol id="icon-FedEx-Logo" viewBox="0 0 467 140">
<path fill="#f60" style="fill: var(--color1, #f60)" d="M347.030 135.81l38.92-43.104-38.92-43.11h41.063l19.277 20.94 18.56-20.94h39.63l-38.733 42.932 39.267 43.282h-41.233l-19.1-21.112-18.92 21.112h-39.81z"></path>
<path fill="#f60" style="fill: var(--color1, #f60)" d="M347.030 30.27h-44.077v19.326h44.077v29.126h-44.077v26.734h44.077v30.354h-76.473v-135.81h76.473v30.27z"></path>
<path fill="#652c8f" style="fill: var(--color2, #652c8f)" d="M238.296 0v55.58h-0.355c-7.142-8.092-16.066-10.904-26.42-10.904-21.209 0-37.185 14.212-42.793 33.002-6.395-20.704-22.889-33.39-47.346-33.39-19.862 0-35.546 8.788-43.731 23.108v-17.798h-41.055v-19.324h44.802v-30.274h-81.399v135.812h36.597v-57.090h36.477c-1.088 4.194-1.668 8.684-1.668 13.422 0 28.33 21.956 48.208 49.976 48.208 23.563 0 39.090-10.904 47.304-30.784h-31.362c-4.242 5.972-7.46 7.746-15.942 7.746-9.834 0-18.314-8.458-18.314-18.484h63.86c2.77 22.502 20.552 41.908 44.954 41.908 10.526 0 20.164-5.104 26.058-13.722h0.355v8.792h32.261v-135.808h-32.261zM104.087 79.128c2.035-8.626 8.822-14.264 17.295-14.264 9.327 0 15.769 5.464 17.464 14.264 0.714 0-34.759 0-34.759 0zM218.719 115.132c-11.892 0-19.282-10.922-19.282-22.326 0-12.19 6.428-23.912 19.282-23.912 13.328 0 18.638 11.722 18.638 23.912-0.002 11.56-5.628 22.326-18.638 22.326z"></path>
</symbol>
</defs>
</svg>
